<?xml version="1.0" encoding="utf-8"?>
<!-- Generator: Adobe Illustrator 28.1.0, SVG Export Plug-In . SVG Version: 6.00 Build 0)  -->
<svg version="1.1" id="Capa_1" xmlns="http://www.w3.org/2000/svg" xmlns:xlink="http://www.w3.org/1999/xlink" x="0px" y="0px"
	 viewBox="0 0 1087.4 498" style="enable-background:new 0 0 1087.4 498;" xml:space="preserve">
<style type="text/css">
	.st0{fill:#429241;}
	.st1{fill:#58595B;}
</style>
<g>
	<g>
		<g>
			<path class="st0" d="M188.5,0v166.1c0,56.9-31.5,85.4-94.5,85.4C31.4,251.5,0,223,0,166.1V0h71.8v168.2c0,21.8,3.1,36.6,9.4,44.6
				c6.2,8,17.7,12,34.5,12c32.5,0,48.8-19.6,48.8-58.8V0H188.5z"/>
		</g>
		<g>
			<polygon class="st0" points="399.8,0 399.8,247.5 344.8,247.5 241.5,90.8 241.5,247.5 217.4,247.5 217.4,0 262.9,0 375.7,169.2 
				375.7,0 			"/>
		</g>
		<g>
			<path class="st0" d="M435.2,247.5V0H542c60.5,0,90.9,24.2,90.9,72.7c0,49-33.7,73.4-101,73.4H507v101.3H435.2z M507,123.3h16.1
				c26.1,0,39.2-17.3,39.2-51.8c0-32.4-13.1-48.6-39.2-48.6H507V123.3z"/>
		</g>
		<g>
			<path class="st0" d="M1087.4,0v166.1c0,56.9-31.5,85.4-94.5,85.4c-62.7,0-94.1-28.4-94.1-85.4V0h71.8v168.2
				c0,21.8,3.1,36.6,9.3,44.6c6.2,8,17.7,12,34.5,12c32.5,0,48.8-19.6,48.8-58.8V0H1087.4z"/>
		</g>
		<g>
			<polygon class="st0" points="724.3,124.4 724.3,247.5 652.5,247.5 652.5,0 724.3,0 724.3,99.5 782.8,99.5 782.8,0 854.6,0 
				854.6,247.5 782.8,247.5 782.8,124.4 			"/>
		</g>
	</g>
	<g>
		<path class="st1" d="M62.6,309.2v43.1c0,4.9-1.1,9.2-3.3,12.9c-2.2,3.7-5.4,6.6-9.5,8.5c-4.2,2-9.1,3-14.8,3
			c-8.6,0-15.2-2.2-20-6.6c-4.7-4.4-7.1-10.4-7.1-18v-42.9H22V350c0,5.1,1,8.9,3.1,11.3c2.1,2.4,5.5,3.6,10.3,3.6
			c4.6,0,8-1.2,10.1-3.6c2.1-2.4,3.1-6.2,3.1-11.4v-40.7H62.6z"/>
		<path class="st1" d="M124.9,375.9H111v-29.8c0-3.7-0.6-6.4-2-8.3c-1.3-1.8-3.4-2.8-6.2-2.8c-3.9,0-6.7,1.3-8.4,3.9
			c-1.7,2.6-2.6,6.9-2.6,12.9v24H77.9v-51h10.6l1.9,6.5h0.8c1.6-2.5,3.7-4.3,6.4-5.6c2.7-1.3,5.8-1.9,9.3-1.9
			c5.9,0,10.4,1.6,13.5,4.8c3.1,3.2,4.6,7.8,4.6,13.9V375.9z"/>
		<path class="st1" d="M138.6,311.8c0-4.5,2.5-6.8,7.6-6.8s7.6,2.3,7.6,6.8c0,2.2-0.6,3.8-1.9,5c-1.3,1.2-3.1,1.8-5.7,1.8
			C141.1,318.6,138.6,316.3,138.6,311.8z M153.1,375.9h-13.9v-51h13.9V375.9z"/>
		<path class="st1" d="M179.8,375.9l-19.4-51H175l9.8,29c1.1,3.7,1.8,7.2,2.1,10.4h0.3c0.1-2.9,0.8-6.4,2-10.4l9.8-29h14.5l-19.4,51
			H179.8z"/>
		<path class="st1" d="M243.9,376.8c-8.2,0-14.6-2.3-19.2-6.8c-4.6-4.5-6.9-10.9-6.9-19.2c0-8.5,2.1-15.1,6.4-19.8
			c4.3-4.7,10.2-7,17.7-7c7.2,0,12.8,2.1,16.8,6.2c4,4.1,6,9.8,6,17v6.7h-32.9c0.2,4,1.3,7,3.5,9.3c2.2,2.2,5.3,3.3,9.2,3.3
			c3.1,0,6-0.3,8.7-1c2.7-0.6,5.6-1.7,8.6-3.1v10.8c-2.4,1.2-5,2.1-7.8,2.7C251.2,376.5,247.9,376.8,243.9,376.8z M241.9,333.9
			c-2.9,0-5.2,0.9-6.9,2.8c-1.7,1.9-2.6,4.5-2.9,8h19.5c-0.1-3.4-1-6.1-2.7-8C247.2,334.8,244.9,333.9,241.9,333.9z"/>
		<path class="st1" d="M304.4,324c1.9,0,3.5,0.1,4.7,0.4l-1,13c-1.1-0.3-2.5-0.5-4.1-0.5c-4.4,0-7.9,1.1-10.4,3.4
			c-2.5,2.3-3.7,5.5-3.7,9.6v25.9H276v-51h10.5l2.1,8.6h0.7c1.6-2.9,3.7-5.2,6.4-6.9C298.3,324.8,301.3,324,304.4,324z"/>
		<path class="st1" d="M353.9,360.8c0,5.2-1.8,9.2-5.4,11.9c-3.6,2.7-9.1,4.1-16.3,4.1c-3.7,0-6.9-0.3-9.5-0.7
			c-2.6-0.5-5.1-1.2-7.3-2.2v-11.5c2.6,1.2,5.5,2.2,8.7,3.1c3.2,0.8,6.1,1.2,8.6,1.2c5,0,7.6-1.5,7.6-4.4c0-1.1-0.3-2-1-2.7
			c-0.7-0.7-1.8-1.5-3.5-2.3c-1.6-0.9-3.8-1.9-6.6-3c-3.9-1.6-6.8-3.2-8.6-4.6c-1.8-1.4-3.2-3-4-4.8c-0.8-1.8-1.3-4-1.3-6.7
			c0-4.5,1.8-8,5.3-10.5s8.5-3.7,14.9-3.7c6.1,0,12.1,1.3,17.9,4l-4.2,10c-2.5-1.1-4.9-2-7.2-2.7c-2.2-0.7-4.5-1-6.8-1
			c-4.1,0-6.2,1.1-6.2,3.3c0,1.2,0.7,2.3,2,3.2c1.3,0.9,4.2,2.3,8.7,4.1c4,1.6,6.9,3.1,8.7,4.5c1.9,1.4,3.2,3,4.1,4.8
			C353.5,356.1,353.9,358.2,353.9,360.8z"/>
		<path class="st1" d="M364.2,311.8c0-4.5,2.5-6.8,7.6-6.8c5,0,7.6,2.3,7.6,6.8c0,2.2-0.6,3.8-1.9,5c-1.3,1.2-3.1,1.8-5.7,1.8
			C366.7,318.6,364.2,316.3,364.2,311.8z M378.7,375.9h-13.9v-51h13.9V375.9z"/>
		<path class="st1" d="M409.4,376.8c-6,0-10.7-2.3-14.1-7c-3.4-4.6-5.1-11.1-5.1-19.3c0-8.4,1.7-14.9,5.2-19.5c3.5-4.7,8.3-7,14.4-7
			c6.4,0,11.3,2.5,14.7,7.5h0.5c-0.7-3.8-1-7.2-1-10.2V305h13.9v70.9h-10.7l-2.7-6.6h-0.6C420.7,374.3,415.9,376.8,409.4,376.8z
			 M414.3,365.7c3.6,0,6.2-1,7.8-3.1c1.7-2.1,2.6-5.6,2.7-10.5v-1.5c0-5.5-0.8-9.4-2.5-11.8c-1.7-2.4-4.4-3.6-8.2-3.6
			c-3.1,0-5.5,1.3-7.2,3.9c-1.7,2.6-2.6,6.5-2.6,11.5c0,5,0.9,8.8,2.6,11.3C408.6,364.5,411.1,365.7,414.3,365.7z"/>
		<path class="st1" d="M484.7,375.9L482,369h-0.4c-2.3,2.9-4.7,5-7.2,6.1c-2.5,1.1-5.7,1.7-9.7,1.7c-4.9,0-8.7-1.4-11.5-4.2
			c-2.8-2.8-4.2-6.8-4.2-11.9c0-5.4,1.9-9.4,5.7-12c3.8-2.6,9.5-4,17.1-4.3l8.8-0.3v-2.2c0-5.2-2.6-7.7-7.9-7.7
			c-4.1,0-8.9,1.2-14.4,3.7l-4.6-9.4c5.9-3.1,12.4-4.6,19.5-4.6c6.8,0,12.1,1.5,15.7,4.5c3.7,3,5.5,7.5,5.5,13.6v34H484.7z
			 M480.6,352.3l-5.4,0.2c-4,0.1-7.1,0.9-9,2.2c-2,1.3-3,3.4-3,6.1c0,3.9,2.2,5.9,6.7,5.9c3.2,0,5.8-0.9,7.7-2.8
			c1.9-1.9,2.9-4.3,2.9-7.4V352.3z"/>
		<path class="st1" d="M524.9,376.8c-6,0-10.7-2.3-14.1-7c-3.4-4.6-5.1-11.1-5.1-19.3c0-8.4,1.7-14.9,5.2-19.5c3.5-4.7,8.3-7,14.4-7
			c6.4,0,11.3,2.5,14.7,7.5h0.5c-0.7-3.8-1-7.2-1-10.2V305h13.9v70.9h-10.7l-2.7-6.6h-0.6C536.2,374.3,531.3,376.8,524.9,376.8z
			 M529.7,365.7c3.6,0,6.2-1,7.8-3.1c1.7-2.1,2.6-5.6,2.7-10.5v-1.5c0-5.5-0.8-9.4-2.5-11.8c-1.7-2.4-4.4-3.6-8.2-3.6
			c-3.1,0-5.5,1.3-7.2,3.9c-1.7,2.6-2.6,6.5-2.6,11.5c0,5,0.9,8.8,2.6,11.3C524,364.5,526.5,365.7,529.7,365.7z"/>
		<path class="st1" d="M652.3,375.9h-18l-29-50.4h-0.4c0.6,8.9,0.9,15.3,0.9,19.1v31.4h-12.6v-66.6H611l28.9,49.9h0.3
			c-0.5-8.7-0.7-14.8-0.7-18.4v-31.5h12.7V375.9z"/>
		<path class="st1" d="M700.3,375.9l-2.7-6.9h-0.4c-2.3,2.9-4.7,5-7.2,6.1c-2.5,1.1-5.7,1.7-9.7,1.7c-4.9,0-8.7-1.4-11.5-4.2
			c-2.8-2.8-4.2-6.8-4.2-11.9c0-5.4,1.9-9.4,5.7-12c3.8-2.6,9.5-4,17.1-4.3l8.8-0.3v-2.2c0-5.2-2.6-7.7-7.9-7.7
			c-4.1,0-8.9,1.2-14.4,3.7l-4.6-9.4c5.9-3.1,12.4-4.6,19.5-4.6c6.8,0,12.1,1.5,15.7,4.5c3.7,3,5.5,7.5,5.5,13.6v34H700.3z
			 M696.2,352.3l-5.4,0.2c-4,0.1-7.1,0.9-9,2.2s-3,3.4-3,6.1c0,3.9,2.2,5.9,6.7,5.9c3.2,0,5.8-0.9,7.7-2.8c1.9-1.9,2.9-4.3,2.9-7.4
			V352.3z"/>
		<path class="st1" d="M745,376.8c-15.9,0-23.8-8.7-23.8-26.1c0-8.7,2.2-15.3,6.5-19.9c4.3-4.6,10.5-6.9,18.5-6.9
			c5.9,0,11.2,1.2,15.9,3.5l-4.1,10.8c-2.2-0.9-4.2-1.6-6.1-2.2c-1.9-0.6-3.8-0.8-5.7-0.8c-7.2,0-10.8,5.1-10.8,15.4
			c0,10,3.6,15,10.8,15c2.7,0,5.2-0.4,7.4-1.1c2.3-0.7,4.6-1.8,6.8-3.3V373c-2.3,1.4-4.5,2.4-6.8,3
			C751.4,376.5,748.5,376.8,745,376.8z"/>
		<path class="st1" d="M771.7,311.8c0-4.5,2.5-6.8,7.6-6.8c5,0,7.6,2.3,7.6,6.8c0,2.2-0.6,3.8-1.9,5c-1.3,1.2-3.1,1.8-5.7,1.8
			C774.3,318.6,771.7,316.3,771.7,311.8z M786.2,375.9h-13.9v-51h13.9V375.9z"/>
		<path class="st1" d="M847.1,350.3c0,8.3-2.2,14.8-6.6,19.5c-4.4,4.7-10.5,7-18.3,7c-4.9,0-9.2-1.1-12.9-3.2
			c-3.7-2.1-6.6-5.2-8.6-9.2c-2-4-3-8.7-3-14c0-8.3,2.2-14.8,6.5-19.4c4.3-4.6,10.5-6.9,18.3-6.9c4.9,0,9.2,1.1,12.9,3.2
			c3.7,2.1,6.6,5.2,8.6,9.2C846.1,340.3,847.1,345,847.1,350.3z M811.9,350.3c0,5,0.8,8.9,2.5,11.4c1.7,2.6,4.4,3.9,8.1,3.9
			c3.7,0,6.4-1.3,8-3.8c1.6-2.6,2.4-6.4,2.4-11.5c0-5-0.8-8.8-2.5-11.4c-1.6-2.5-4.3-3.8-8.1-3.8c-3.7,0-6.4,1.3-8,3.8
			C812.7,341.5,811.9,345.2,811.9,350.3z"/>
		<path class="st1" d="M905.7,375.9h-13.9v-29.8c0-3.7-0.6-6.4-2-8.3c-1.3-1.8-3.4-2.8-6.2-2.8c-3.9,0-6.7,1.3-8.4,3.9
			c-1.7,2.6-2.6,6.9-2.6,12.9v24h-13.9v-51h10.6l1.9,6.5h0.8c1.6-2.5,3.7-4.3,6.4-5.6c2.7-1.3,5.8-1.9,9.3-1.9
			c5.9,0,10.4,1.6,13.5,4.8c3.1,3.2,4.6,7.8,4.6,13.9V375.9z"/>
		<path class="st1" d="M952.3,375.9l-2.7-6.9h-0.4c-2.3,2.9-4.7,5-7.2,6.1c-2.5,1.1-5.7,1.7-9.7,1.7c-4.9,0-8.7-1.4-11.5-4.2
			c-2.8-2.8-4.2-6.8-4.2-11.9c0-5.4,1.9-9.4,5.7-12c3.8-2.6,9.5-4,17.1-4.3l8.8-0.3v-2.2c0-5.2-2.6-7.7-7.9-7.7
			c-4.1,0-8.9,1.2-14.4,3.7l-4.6-9.4c5.9-3.1,12.4-4.6,19.5-4.6c6.8,0,12.1,1.5,15.7,4.5c3.7,3,5.5,7.5,5.5,13.6v34H952.3z
			 M948.2,352.3l-5.4,0.2c-4,0.1-7.1,0.9-9,2.2s-3,3.4-3,6.1c0,3.9,2.2,5.9,6.7,5.9c3.2,0,5.8-0.9,7.7-2.8c1.9-1.9,2.9-4.3,2.9-7.4
			V352.3z"/>
		<path class="st1" d="M990.3,375.9h-13.9V305h13.9V375.9z"/>
		<path class="st1" d="M54.4,429.7c0,7.2-2.2,12.7-6.7,16.5c-4.5,3.8-10.9,5.7-19.1,5.7h-6.1v23.7H8.4v-66.6h21.3
			c8.1,0,14.2,1.7,18.4,5.2C52.3,417.6,54.4,422.8,54.4,429.7z M22.5,440.2h4.6c4.4,0,7.6-0.9,9.8-2.6c2.2-1.7,3.2-4.2,3.2-7.5
			c0-3.3-0.9-5.8-2.7-7.3c-1.8-1.6-4.6-2.4-8.5-2.4h-6.4V440.2z"/>
		<path class="st1" d="M89,476.4c-8.2,0-14.6-2.3-19.2-6.8c-4.6-4.5-6.9-10.9-6.9-19.2c0-8.5,2.1-15.1,6.4-19.8
			c4.3-4.7,10.2-7,17.7-7c7.2,0,12.8,2.1,16.8,6.2c4,4.1,6,9.8,6,17v6.7H76.9c0.2,4,1.3,7,3.5,9.3c2.2,2.2,5.3,3.3,9.2,3.3
			c3.1,0,6-0.3,8.7-1s5.6-1.7,8.6-3.1v10.8c-2.4,1.2-5,2.1-7.8,2.7C96.3,476.1,93,476.4,89,476.4z M87,433.5c-2.9,0-5.2,0.9-6.9,2.8
			c-1.7,1.9-2.6,4.5-2.9,8h19.5c-0.1-3.4-1-6.1-2.7-8C92.3,434.4,90,433.5,87,433.5z"/>
		<path class="st1" d="M137.2,476.4c-6,0-10.7-2.3-14.1-7c-3.4-4.6-5.1-11.1-5.1-19.3c0-8.4,1.7-14.9,5.2-19.5c3.5-4.7,8.3-7,14.4-7
			c6.4,0,11.3,2.5,14.7,7.5h0.5c-0.7-3.8-1-7.2-1-10.2v-16.3h13.9v70.9h-10.7l-2.7-6.6h-0.6C148.5,473.9,143.7,476.4,137.2,476.4z
			 M142.1,465.4c3.6,0,6.2-1,7.8-3.1c1.7-2.1,2.6-5.6,2.7-10.5v-1.5c0-5.5-0.8-9.4-2.5-11.8c-1.7-2.4-4.4-3.6-8.2-3.6
			c-3.1,0-5.5,1.3-7.2,3.9c-1.7,2.6-2.6,6.5-2.6,11.5c0,5,0.9,8.8,2.6,11.3C136.4,464.1,138.9,465.4,142.1,465.4z"/>
		<path class="st1" d="M208.6,423.6c1.9,0,3.5,0.1,4.7,0.4l-1,13c-1.1-0.3-2.5-0.5-4.1-0.5c-4.4,0-7.9,1.1-10.4,3.4
			c-2.5,2.3-3.7,5.5-3.7,9.6v25.9h-13.9v-51h10.5l2.1,8.6h0.7c1.6-2.9,3.7-5.2,6.4-6.9C202.5,424.5,205.4,423.6,208.6,423.6z"/>
		<path class="st1" d="M268.8,450c0,8.3-2.2,14.8-6.6,19.5c-4.4,4.7-10.5,7-18.3,7c-4.9,0-9.2-1.1-12.9-3.2
			c-3.7-2.1-6.6-5.2-8.6-9.2c-2-4-3-8.7-3-14c0-8.3,2.2-14.8,6.5-19.4c4.3-4.6,10.5-6.9,18.3-6.9c4.9,0,9.2,1.1,12.9,3.2
			c3.7,2.1,6.6,5.2,8.6,9.2C267.9,439.9,268.8,444.6,268.8,450z M233.6,450c0,5,0.8,8.9,2.5,11.4c1.7,2.6,4.4,3.9,8.1,3.9
			c3.7,0,6.4-1.3,8-3.8s2.4-6.4,2.4-11.5c0-5-0.8-8.8-2.5-11.4c-1.6-2.5-4.3-3.8-8.1-3.8c-3.7,0-6.4,1.3-8,3.8
			C234.4,441.1,233.6,444.9,233.6,450z"/>
		<path class="st1" d="M360.3,475.5h-14.1v-28.8h-26.4v28.8h-14.1v-66.6h14.1V435h26.4v-26.1h14.1V475.5z"/>
		<path class="st1" d="M399.1,476.4c-8.2,0-14.6-2.3-19.2-6.8c-4.6-4.5-6.9-10.9-6.9-19.2c0-8.5,2.1-15.1,6.4-19.8
			c4.3-4.7,10.2-7,17.7-7c7.2,0,12.8,2.1,16.8,6.2c4,4.1,6,9.8,6,17v6.7H387c0.2,4,1.3,7,3.5,9.3c2.2,2.2,5.3,3.3,9.2,3.3
			c3.1,0,6-0.3,8.7-1s5.6-1.7,8.6-3.1v10.8c-2.4,1.2-5,2.1-7.8,2.7C406.4,476.1,403.1,476.4,399.1,476.4z M397.1,433.5
			c-2.9,0-5.2,0.9-6.9,2.8c-1.7,1.9-2.6,4.5-2.9,8h19.5c-0.1-3.4-1-6.1-2.7-8C402.4,434.4,400.1,433.5,397.1,433.5z"/>
		<path class="st1" d="M478.2,475.5h-13.9v-29.8c0-3.7-0.6-6.4-2-8.3c-1.3-1.8-3.4-2.8-6.2-2.8c-3.9,0-6.7,1.3-8.4,3.9
			c-1.7,2.6-2.6,6.9-2.6,12.9v24h-13.9v-51h10.6l1.9,6.5h0.8c1.6-2.5,3.7-4.3,6.4-5.6c2.7-1.3,5.8-1.9,9.3-1.9
			c5.9,0,10.4,1.6,13.5,4.8c3.1,3.2,4.6,7.8,4.6,13.9V475.5z"/>
		<path class="st1" d="M521,423.6c1.9,0,3.5,0.1,4.7,0.4l-1,13c-1.1-0.3-2.5-0.5-4.1-0.5c-4.4,0-7.9,1.1-10.4,3.4
			c-2.5,2.3-3.7,5.5-3.7,9.6v25.9h-13.9v-51h10.5l2.1,8.6h0.7c1.6-2.9,3.7-5.2,6.4-6.9C514.9,424.5,517.8,423.6,521,423.6z"/>
		<path class="st1" d="M534.2,419v-1.2c5.2-6.1,8.8-10.7,10.7-13.7h15.6v1c-1.6,1.6-4.3,3.9-8.1,7s-6.8,5.4-9,7H534.2z M548.8,475.5
			h-13.9v-51h13.9V475.5z"/>
		<path class="st1" d="M579.6,476.4c-6,0-10.7-2.3-14.1-7c-3.4-4.6-5.1-11.1-5.1-19.3c0-8.3,1.7-14.8,5.2-19.5c3.5-4.7,8.2-7,14.3-7
			c3.2,0,6,0.6,8.4,1.8c2.4,1.2,4.5,3.1,6.3,5.7h0.4l1.2-6.5h11.8V498H594v-21.4c0-1.9,0.2-4.4,0.6-7.7H594
			c-1.5,2.5-3.5,4.3-5.9,5.6C585.6,475.8,582.8,476.4,579.6,476.4z M584.5,465.5c3.5,0,6.1-1,7.8-3c1.6-2,2.5-5.6,2.7-10.6v-1.7
			c0-5.5-0.8-9.4-2.5-11.8c-1.7-2.4-4.4-3.6-8.1-3.6c-6.5,0-9.8,5.1-9.8,15.4c0,5.1,0.8,8.9,2.4,11.4
			C578.6,464.3,581.1,465.5,584.5,465.5z"/>
		<path class="st1" d="M658.6,475.5l-1.9-6.5H656c-1.5,2.4-3.6,4.2-6.3,5.5c-2.7,1.3-5.9,1.9-9.3,1.9c-6,0-10.5-1.6-13.5-4.8
			c-3-3.2-4.6-7.8-4.6-13.8v-33.2h13.9v29.8c0,3.7,0.7,6.4,2,8.3c1.3,1.8,3.4,2.8,6.2,2.8c3.9,0,6.7-1.3,8.4-3.9
			c1.7-2.6,2.6-6.9,2.6-12.9v-24h13.9v51H658.6z"/>
		<path class="st1" d="M706.9,476.4c-8.2,0-14.6-2.3-19.2-6.8c-4.6-4.5-6.9-10.9-6.9-19.2c0-8.5,2.1-15.1,6.4-19.8
			c4.3-4.7,10.2-7,17.7-7c7.2,0,12.8,2.1,16.8,6.2c4,4.1,6,9.8,6,17v6.7h-32.9c0.2,4,1.3,7,3.5,9.3c2.2,2.2,5.3,3.3,9.2,3.3
			c3.1,0,6-0.3,8.7-1s5.6-1.7,8.6-3.1v10.8c-2.4,1.2-5,2.1-7.8,2.7C714.3,476.1,710.9,476.4,706.9,476.4z M704.9,433.5
			c-2.9,0-5.2,0.9-6.9,2.8c-1.7,1.9-2.6,4.5-2.9,8h19.5c-0.1-3.4-1-6.1-2.7-8C710.2,434.4,707.9,433.5,704.9,433.5z"/>
		<path class="st1" d="M774.5,475.5h-40.2v-8.2l23.6-32.1h-22.2v-10.6h38v9l-23,31.3h23.8V475.5z"/>
		<path class="st1" d="M864.1,408.9V452c0,4.9-1.1,9.2-3.3,12.9c-2.2,3.7-5.4,6.6-9.5,8.5c-4.2,2-9.1,3-14.8,3
			c-8.6,0-15.2-2.2-20-6.6c-4.7-4.4-7.1-10.4-7.1-18v-42.9h14.1v40.8c0,5.1,1,8.9,3.1,11.3c2.1,2.4,5.5,3.6,10.3,3.6
			c4.6,0,8-1.2,10.1-3.6c2.1-2.4,3.1-6.2,3.1-11.4v-40.7H864.1z"/>
		<path class="st1" d="M907.8,423.6c1.9,0,3.5,0.1,4.7,0.4l-1,13c-1.1-0.3-2.5-0.5-4.1-0.5c-4.4,0-7.9,1.1-10.4,3.4
			s-3.7,5.5-3.7,9.6v25.9h-13.9v-51h10.5l2.1,8.6h0.7c1.6-2.9,3.7-5.2,6.4-6.9C901.7,424.5,904.6,423.6,907.8,423.6z"/>
		<path class="st1" d="M944.8,476.4c-8.2,0-14.6-2.3-19.2-6.8c-4.6-4.5-6.9-10.9-6.9-19.2c0-8.5,2.1-15.1,6.4-19.8
			c4.3-4.7,10.2-7,17.7-7c7.2,0,12.8,2.1,16.8,6.2c4,4.1,6,9.8,6,17v6.7h-32.9c0.2,4,1.3,7,3.5,9.3c2.2,2.2,5.3,3.3,9.2,3.3
			c3.1,0,6-0.3,8.7-1s5.6-1.7,8.6-3.1v10.8c-2.4,1.2-5,2.1-7.8,2.7C952.2,476.1,948.8,476.4,944.8,476.4z M942.8,433.5
			c-2.9,0-5.2,0.9-6.9,2.8c-1.7,1.9-2.6,4.5-2.9,8h19.5c-0.1-3.4-1-6.1-2.7-8C948.1,434.4,945.8,433.5,942.8,433.5z"/>
		<path class="st1" d="M1023.9,475.5H1010v-29.8c0-3.7-0.6-6.4-2-8.3c-1.3-1.8-3.4-2.8-6.2-2.8c-3.9,0-6.7,1.3-8.4,3.9
			c-1.7,2.6-2.6,6.9-2.6,12.9v24h-13.9v-51h10.6l1.9,6.5h0.8c1.6-2.5,3.7-4.3,6.4-5.6c2.7-1.3,5.8-1.9,9.3-1.9
			c5.9,0,10.4,1.6,13.5,4.8c3.1,3.2,4.6,7.8,4.6,13.9V475.5z M992.8,414.2c-0.9,0-1.8,0.4-2.7,1.2c-0.9,0.8-1.5,2-1.9,3.7h-6.8
			c0.3-4.4,1.6-7.9,3.8-10.3c2.2-2.5,5-3.7,8.6-3.7c1.2,0,2.5,0.3,3.7,0.8c1.2,0.5,2.4,1,3.6,1.6c1.2,0.6,2.3,1.1,3.4,1.6
			c1.1,0.5,2.2,0.7,3.3,0.7c0.9,0,1.8-0.4,2.7-1.2c0.9-0.8,1.5-2,1.9-3.6h6.8c-0.3,4.4-1.6,7.9-3.8,10.3c-2.2,2.5-5.1,3.7-8.6,3.7
			c-1.2,0-2.5-0.3-3.7-0.8c-1.2-0.5-2.4-1-3.6-1.6c-1.2-0.6-2.3-1.1-3.4-1.6C995,414.4,993.9,414.2,992.8,414.2z"/>
		<path class="st1" d="M1070.6,475.5l-2.7-6.9h-0.4c-2.3,2.9-4.7,5-7.2,6.1c-2.5,1.1-5.7,1.7-9.7,1.7c-4.9,0-8.7-1.4-11.5-4.2
			c-2.8-2.8-4.2-6.8-4.2-11.9c0-5.4,1.9-9.4,5.7-12c3.8-2.6,9.5-4,17.1-4.3l8.8-0.3v-2.2c0-5.2-2.6-7.7-7.9-7.7
			c-4.1,0-8.9,1.2-14.4,3.7l-4.6-9.4c5.9-3.1,12.4-4.6,19.5-4.6c6.8,0,12.1,1.5,15.7,4.5c3.7,3,5.5,7.5,5.5,13.6v34H1070.6z
			 M1066.5,451.9l-5.4,0.2c-4,0.1-7.1,0.9-9,2.2c-2,1.3-3,3.4-3,6.1c0,3.9,2.2,5.9,6.7,5.9c3.2,0,5.8-0.9,7.7-2.8s2.9-4.3,2.9-7.4
			V451.9z"/>
	</g>
</g>
</svg>
